<svg width="24" height="24" viewBox="0 0 24 24" fill="none" xmlns="http://www.w3.org/2000/svg">
<path fill-rule="evenodd" clip-rule="evenodd" d="M0 1.2C0 0.537258 0.516845 0 1.15441 0H2.56278C3.07748 1.40905e-05 3.57745 0.178805 3.98321 0.507973C4.38897 0.837141 4.67728 1.29781 4.80236 1.8168L5.51916 4.8H20.5369C21.0207 4.80002 21.4992 4.90543 21.9415 5.10943C22.3837 5.31343 22.78 5.6115 23.1046 5.98443C23.4293 6.35735 23.6752 6.79685 23.8264 7.2746C23.9777 7.75235 24.031 8.25774 23.9828 8.7582L23.2902 15.9582C23.2047 16.8465 22.8048 17.6701 22.168 18.2692C21.5313 18.8682 20.7031 19.2 19.8443 19.2H8.82011C8.81996 19.2 8.82027 19.2 8.82011 19.2C8.01936 19.2002 7.24281 18.912 6.62347 18.3843C6.00404 17.8566 5.57971 17.1221 5.42272 16.3057C5.42271 16.3057 5.42272 16.3057 5.42272 16.3057L3.49099 6.26319L2.56275 2.4H1.15441C0.516845 2.4 0 1.86274 0 1.2ZM6.0257 7.2L7.68671 15.8351C7.73904 16.1072 7.8805 16.3522 8.08699 16.5281C8.29347 16.704 8.55223 16.8001 8.8192 16.8H19.8442C19.8442 16.8 19.8442 16.8 19.8442 16.8C20.1304 16.8 20.4065 16.6894 20.6188 16.4897C20.831 16.29 20.9643 16.0155 20.9928 15.7194L21.6855 8.5194C21.7015 8.35258 21.6838 8.18412 21.6333 8.02487C21.5829 7.86562 21.501 7.71912 21.3927 7.59481C21.2845 7.4705 21.1524 7.37114 21.005 7.30314C20.8576 7.23515 20.6981 7.20001 20.5369 7.2C20.5369 7.2 20.5369 7.2 20.5369 7.2H6.0257ZM6.92643 22.8C6.92643 22.1373 7.44328 21.6 8.08084 21.6H10.3896C11.0272 21.6 11.5441 22.1373 11.5441 22.8C11.5441 23.4627 11.0272 24 10.3896 24H8.08084C7.44328 24 6.92643 23.4627 6.92643 22.8ZM16.1617 22.8C16.1617 22.1373 16.6785 21.6 17.3161 21.6H19.6249C20.2624 21.6 20.7793 22.1373 20.7793 22.8C20.7793 23.4627 20.2624 24 19.6249 24H17.3161C16.6785 24 16.1617 23.4627 16.1617 22.8Z" fill="black"/>
</svg>
