<svg width="26" height="24" viewBox="0 0 26 24" fill="none" xmlns="http://www.w3.org/2000/svg">
<path fill-rule="evenodd" clip-rule="evenodd" d="M0 7.19993C0 3.21175 3.18653 0 7.09091 0C9.13386 0 10.8778 1.12143 12.0232 2.09352C12.3982 2.41174 12.7265 2.72883 13 3.01332C13.2735 2.72883 13.6018 2.41174 13.9768 2.09352C15.1222 1.12143 16.8661 0 18.9091 0C22.8135 0 26 3.21175 26 7.19993C26 8.71057 25.7036 11.1786 24.0527 14.1111C22.4056 17.0368 19.4475 20.3591 14.224 23.6471L14.2194 23.65C13.852 23.8789 13.4301 24 13 24C12.5699 24 12.148 23.8789 11.7806 23.65L11.776 23.6471C6.55245 20.3591 3.5944 17.0368 1.94734 14.1111C0.296403 11.1786 0 8.71057 0 7.19993ZM12.0529 5.56406L12.0519 5.56279L12.0363 5.54198C12.021 5.52187 11.9963 5.48968 11.9625 5.44712C11.8949 5.3619 11.7918 5.23578 11.657 5.08243C11.3861 4.77415 10.9948 4.36411 10.5149 3.95684C9.52156 3.11382 8.31096 2.42014 7.09091 2.42014C4.46929 2.42014 2.36364 4.57143 2.36364 7.19993C2.36364 8.35992 2.58428 10.3964 3.99513 12.9025C5.40855 15.4132 8.05343 18.4604 13 21.5767C17.9466 18.4604 20.5914 15.4132 22.0049 12.9025C23.4157 10.3964 23.6364 8.35992 23.6364 7.19993C23.6364 4.57143 21.5307 2.42014 18.9091 2.42014C17.689 2.42014 16.4784 3.11382 15.4851 3.95684C15.0052 4.36411 14.6139 4.77415 14.343 5.08243C14.2082 5.23578 14.1051 5.3619 14.0375 5.44712C14.0037 5.48968 13.979 5.52187 13.9637 5.54198L13.9481 5.56279L13.9471 5.56406C13.9471 5.56406 13.9471 5.56406 13 5.56406M12.0529 5.56406L12.0536 5.56501L12.0542 5.5659C12.2774 5.87082 12.6278 6.05036 13 6.05036C13.3728 6.05036 13.724 5.86978 13.9471 5.56406" fill="black"/>
</svg>
